<svg width="116" height="116" viewBox="0 0 116 116" fill="none" xmlns="http://www.w3.org/2000/svg">
<path d="M30.9112 64.3232L51.4723 64.3232L51.4723 84.8843C51.4723 88.7395 54.0425 91.3096 57.8977 91.3096C61.7529 91.3096 64.323 88.7395 64.323 84.8843L64.323 64.3232L84.8842 64.3232C88.7394 64.3232 91.3095 61.753 91.3095 57.8978C91.3095 54.0426 88.7394 51.4725 84.8842 51.4725L64.323 51.4725L64.323 30.9113C64.323 27.0561 61.7529 24.486 57.8977 24.486C54.0425 24.486 51.4723 27.0561 51.4723 30.9113L51.4723 51.4725L30.9112 51.4725C27.056 51.4725 24.4858 54.0426 24.4858 57.8978C24.4858 61.753 27.056 64.3232 30.9112 64.3232Z" fill="white" fill-opacity="0.7"/>
<path d="M0.0693359 57.8978C0.0693359 90.0246 25.7707 115.726 57.8975 115.726C90.0243 115.726 115.726 90.0246 115.726 57.8978C115.726 25.7711 90.0243 0.0696449 57.8975 0.0696449C25.7707 0.0696449 0.0693359 25.7711 0.0693359 57.8978ZM57.8975 12.9203C82.9564 12.9203 102.875 32.8389 102.875 57.8978C102.875 82.9567 82.9564 102.875 57.8975 102.875C32.8386 102.875 12.92 82.9567 12.92 57.8978C12.92 32.8389 32.8386 12.9203 57.8975 12.9203Z" fill="white" fill-opacity="0.7"/>
</svg>
