<svg width="441" height="148" viewBox="0 0 441 148" fill="none" xmlns="http://www.w3.org/2000/svg">
<path d="M113.933 59.3181H51.2771L31.7711 78.7956L31.6234 41.0209L42.7063 33.0528H121.617L64.1333 0L0 37.0369V110.963L31.9189 129.408L31.6234 93.994L56.3014 69.6471H103.441L78.6151 94.4367H57.0402V116.865L39.8986 133.982L64.1333 148L128.267 110.963V45.005L113.933 59.3181Z" fill="#F89F1F"/>
<path d="M215.677 29.3319V37.2681H177.858V62.471H208.563V70.4072H177.858V104.083H166.5V29.3319H215.677Z" fill="#393939"/>
<path d="M280.819 87.4594H242.875L235.885 104.083H223.903L255.357 29.7608H268.462L299.791 104.083H287.808L280.819 87.4594ZM277.574 79.5232L261.847 41.7724L246.12 79.5232H277.574Z" fill="#393939"/>
<path d="M341.083 104.833C335.341 104.833 330.182 103.975 325.606 102.259C321.113 100.472 317.576 98.041 314.997 94.9666C312.417 91.8207 311.086 88.2101 311.003 84.1348H323.11C323.526 87.6381 325.19 90.6053 328.102 93.0362C331.098 95.3956 335.425 96.5753 341.083 96.5753C346.492 96.5753 350.735 95.4314 353.814 93.1435C356.976 90.784 358.557 87.7811 358.557 84.1348C358.557 81.2749 357.642 78.9512 355.811 77.1637C353.98 75.3763 351.692 74.0179 348.946 73.0884C346.2 72.1589 342.497 71.1579 337.838 70.0855C332.096 68.7985 327.478 67.5116 323.983 66.2246C320.572 64.9377 317.618 62.9357 315.121 60.2188C312.708 57.4304 311.502 53.7125 311.502 49.0652C311.502 44.9898 312.708 41.3792 315.121 38.2333C317.535 35.0874 320.904 32.6565 325.231 30.9405C329.642 29.2246 334.676 28.3666 340.334 28.3666C348.489 28.3666 355.145 30.1183 360.304 33.6217C365.547 37.1251 368.501 41.7724 369.166 47.5637H356.685C356.269 44.7038 354.521 42.2014 351.443 40.0565C348.364 37.8401 344.286 36.7319 339.211 36.7319C334.468 36.7319 330.598 37.8043 327.603 39.9492C324.607 42.0227 323.11 44.9541 323.11 48.7434C323.11 51.4604 323.983 53.6768 325.731 55.3927C327.561 57.1087 329.766 58.4314 332.346 59.3608C335.009 60.2188 338.711 61.2198 343.454 62.3637C349.196 63.7222 353.814 65.0807 357.309 66.4391C360.804 67.7261 363.799 69.7637 366.296 72.5522C368.792 75.2691 370.04 78.9869 370.04 83.7058C370.04 87.3521 368.917 90.784 366.67 94.0014C364.423 97.2188 361.095 99.8285 356.685 101.83C352.275 103.832 347.074 104.833 341.083 104.833Z" fill="#393939"/>
<path d="M440.3 29.3319V37.2681H416.585V104.083H405.227V37.2681H381.387V29.3319H440.3Z" fill="#393939"/>
<path d="M164 130.257H166.226V123.839H170.717V121.875H166.226V117.547H171.987V115.583H164V130.257Z" fill="#202020"/>
<path d="M174.05 130.257H176.276V118.624H174.05V130.257ZM175.182 117.083C175.963 117.083 176.588 116.407 176.588 115.541C176.588 114.676 175.963 114 175.182 114C174.382 114 173.757 114.676 173.757 115.541C173.757 116.407 174.382 117.083 175.182 117.083Z" fill="#202020"/>
<path d="M183.729 120.461C185.388 120.461 186.697 121.601 186.736 123.395H180.78C181.014 121.559 182.225 120.461 183.729 120.461ZM188.767 126.795H186.365C185.955 127.702 185.193 128.42 183.826 128.42C182.186 128.42 180.917 127.259 180.76 125.338H188.981C189.04 124.937 189.06 124.557 189.06 124.155C189.06 120.735 186.892 118.434 183.826 118.434C180.643 118.434 178.456 120.777 178.456 124.43C178.456 128.083 180.741 130.447 183.826 130.447C186.462 130.447 188.161 128.821 188.767 126.795Z" fill="#202020"/>
<path d="M191.25 130.257H193.476V114.633H191.25V130.257Z" fill="#202020"/>
<path d="M195.657 124.388C195.657 127.977 197.903 130.447 200.734 130.447C202.491 130.447 203.78 129.56 204.464 128.505V130.257H206.709V114.633H204.464V120.25C203.644 119.152 202.159 118.434 200.753 118.434C197.903 118.434 195.657 120.798 195.657 124.388ZM204.464 124.43C204.464 126.942 202.882 128.357 201.203 128.357C199.543 128.357 197.942 126.9 197.942 124.388C197.942 121.875 199.543 120.524 201.203 120.524C202.882 120.524 204.464 121.939 204.464 124.43Z" fill="#202020"/>
<path d="M223.337 118.856C223.473 116.85 222.204 115.246 219.841 115.246C217.517 115.246 216.072 116.702 216.072 118.624C216.072 119.658 216.346 120.44 217.107 121.432C214.959 122.382 213.925 124.05 213.925 126.035C213.925 128.779 215.877 130.532 218.806 130.532C220.7 130.532 222.204 129.856 223.512 128.441L225.192 130.257H228.101L224.801 126.71C224.957 126.436 225.133 126.14 225.289 125.845L227.047 122.593H224.645L223.258 125.063L219.665 121.2C218.709 120.081 218.299 119.426 218.299 118.624C218.299 117.843 218.865 117.209 219.744 117.209C220.583 117.209 221.15 117.779 221.11 118.856H223.337ZM218.806 128.484C217.205 128.484 216.151 127.365 216.151 125.95C216.151 124.641 216.873 123.628 218.455 122.952L222.048 126.858C221.11 127.935 220.076 128.484 218.806 128.484Z" fill="#202020"/>
<path d="M243.791 126.098C243.791 120.735 236.605 122.804 236.605 119.489C236.605 118.075 237.601 117.399 238.89 117.441C240.296 117.484 241.097 118.392 241.175 119.384H243.635C243.44 116.871 241.604 115.393 239.007 115.393C236.234 115.393 234.34 116.998 234.34 119.574C234.34 124.979 241.546 122.678 241.546 126.225C241.546 127.47 240.667 128.378 239.105 128.378C237.562 128.378 236.781 127.407 236.683 126.203H234.301C234.301 128.8 236.391 130.405 239.105 130.405C242.132 130.405 243.791 128.294 243.791 126.098Z" fill="#202020"/>
<path d="M250.948 120.461C252.608 120.461 253.916 121.601 253.956 123.395H248C248.234 121.559 249.445 120.461 250.948 120.461ZM255.986 126.795H253.584C253.174 127.702 252.413 128.42 251.046 128.42C249.406 128.42 248.136 127.259 247.98 125.338H256.201C256.26 124.937 256.279 124.557 256.279 124.155C256.279 120.735 254.112 118.434 251.046 118.434C247.863 118.434 245.676 120.777 245.676 124.43C245.676 128.083 247.961 130.447 251.046 130.447C253.682 130.447 255.381 128.821 255.986 126.795Z" fill="#202020"/>
<path d="M260.696 124.134C260.696 121.664 261.711 120.925 263.352 120.925H263.918V118.434C262.395 118.434 261.321 119.152 260.696 120.313V118.624H258.47V130.257H260.696V124.134Z" fill="#202020"/>
<path d="M264.695 118.624L268.776 130.257H271.432L275.532 118.624H273.17L270.123 128.104L267.077 118.624H264.695Z" fill="#202020"/>
<path d="M277.215 130.257H279.441V118.624H277.215V130.257ZM278.348 117.083C279.129 117.083 279.754 116.407 279.754 115.541C279.754 114.676 279.129 114 278.348 114C277.547 114 276.922 114.676 276.922 115.541C276.922 116.407 277.547 117.083 278.348 117.083Z" fill="#202020"/>
<path d="M281.622 124.43C281.622 128.083 283.809 130.447 286.894 130.447C289.53 130.447 291.249 128.864 291.854 126.583H289.452C289.042 127.787 288.222 128.42 286.894 128.42C285.098 128.42 283.907 126.985 283.907 124.43C283.907 121.896 285.098 120.461 286.894 120.461C288.222 120.461 289.081 121.179 289.452 122.298H291.854C291.249 119.848 289.53 118.434 286.894 118.434C283.809 118.434 281.622 120.798 281.622 124.43Z" fill="#202020"/>
<path d="M298.603 120.461C300.263 120.461 301.571 121.601 301.61 123.395H295.654C295.889 121.559 297.099 120.461 298.603 120.461ZM303.641 126.795H301.239C300.829 127.702 300.067 128.42 298.7 128.42C297.06 128.42 295.791 127.259 295.635 125.338H303.856C303.914 124.937 303.934 124.557 303.934 124.155C303.934 120.735 301.766 118.434 298.7 118.434C295.518 118.434 293.331 120.777 293.331 124.43C293.331 128.083 295.615 130.447 298.7 130.447C301.337 130.447 303.035 128.821 303.641 126.795Z" fill="#202020"/>
<path d="M310.494 117.547H314.126V130.257H316.352V117.547H319.965V115.583H310.494V117.547Z" fill="#202020"/>
<path d="M322.219 130.257H324.445V118.624H322.219V130.257ZM323.352 117.083C324.133 117.083 324.758 116.407 324.758 115.541C324.758 114.676 324.133 114 323.352 114C322.551 114 321.926 114.676 321.926 115.541C321.926 116.407 322.551 117.083 323.352 117.083Z" fill="#202020"/>
<path d="M342.618 130.257H344.825V123.395C344.825 120.144 342.911 118.434 340.392 118.434C338.83 118.434 337.307 119.321 336.643 120.735C335.901 119.215 334.476 118.434 332.777 118.434C331.488 118.434 330.316 119.004 329.594 119.954V118.624H327.368V130.257H329.594V123.754C329.594 121.622 330.668 120.524 332.308 120.524C333.929 120.524 335.003 121.622 335.003 123.754V130.257H337.209V123.754C337.209 121.622 338.283 120.524 339.924 120.524C341.544 120.524 342.618 121.622 342.618 123.754V130.257Z" fill="#202020"/>
<path d="M352.188 120.461C353.848 120.461 355.156 121.601 355.195 123.395H349.239C349.474 121.559 350.684 120.461 352.188 120.461ZM357.226 126.795H354.824C354.414 127.702 353.652 128.42 352.286 128.42C350.645 128.42 349.376 127.259 349.22 125.338H357.441C357.499 124.937 357.519 124.557 357.519 124.155C357.519 120.735 355.351 118.434 352.286 118.434C349.103 118.434 346.916 120.777 346.916 124.43C346.916 128.083 349.2 130.447 352.286 130.447C354.922 130.447 356.621 128.821 357.226 126.795Z" fill="#202020"/>
<path d="M359.709 130.257H361.936V125.253L365.919 130.257H368.926L363.966 124.451L368.926 118.624H365.841L361.936 123.712V114.633H359.709V130.257Z" fill="#202020"/>
<path d="M375.052 120.461C376.712 120.461 378.02 121.601 378.059 123.395H372.104C372.338 121.559 373.549 120.461 375.052 120.461ZM380.09 126.795H377.688C377.278 127.702 376.517 128.42 375.15 128.42C373.509 128.42 372.24 127.259 372.084 125.338H380.305C380.364 124.937 380.383 124.557 380.383 124.155C380.383 120.735 378.216 118.434 375.15 118.434C371.967 118.434 369.78 120.777 369.78 124.43C369.78 128.083 372.064 130.447 375.15 130.447C377.786 130.447 379.485 128.821 380.09 126.795Z" fill="#202020"/>
<path d="M387.104 120.461C388.764 120.461 390.072 121.601 390.111 123.395H384.155C384.39 121.559 385.6 120.461 387.104 120.461ZM392.142 126.795H389.74C389.33 127.702 388.569 128.42 387.202 128.42C385.561 128.42 384.292 127.259 384.136 125.338H392.357C392.415 124.937 392.435 124.557 392.435 124.155C392.435 120.735 390.267 118.434 387.202 118.434C384.019 118.434 381.832 120.777 381.832 124.43C381.832 128.083 384.116 130.447 387.202 130.447C389.838 130.447 391.537 128.821 392.142 126.795Z" fill="#202020"/>
<path d="M396.852 120.334V118.624H394.626V135.789H396.852V128.568C397.555 129.476 398.824 130.447 400.601 130.447C403.432 130.447 405.658 127.977 405.658 124.388C405.658 120.798 403.432 118.434 400.601 118.434C398.843 118.434 397.535 119.363 396.852 120.334ZM403.393 124.388C403.393 126.9 401.792 128.357 400.113 128.357C398.453 128.357 396.852 126.942 396.852 124.43C396.852 121.939 398.453 120.524 400.113 120.524C401.792 120.524 403.393 121.875 403.393 124.388Z" fill="#202020"/>
<path d="M407.86 130.257H410.086V118.624H407.86V130.257ZM408.992 117.083C409.773 117.083 410.398 116.407 410.398 115.541C410.398 114.676 409.773 114 408.992 114C408.192 114 407.567 114.676 407.567 115.541C407.567 116.407 408.192 117.083 408.992 117.083Z" fill="#202020"/>
<path d="M420.644 130.257H422.85V123.395C422.85 120.144 420.956 118.434 418.437 118.434C417.148 118.434 415.957 119.004 415.235 119.954V118.624H413.009V130.257H415.235V123.754C415.235 121.622 416.309 120.524 417.949 120.524C419.57 120.524 420.644 121.622 420.644 123.754V130.257Z" fill="#202020"/>
<path d="M424.948 124.388C424.948 127.977 427.193 130.447 430.025 130.447C431.782 130.447 433.071 129.497 433.754 128.505V130.447C433.754 132.77 432.466 133.91 430.747 133.91C429.205 133.91 428.013 133.086 427.681 131.883H425.475C425.748 134.459 427.877 136 430.747 136C434.106 136 436 133.614 436 130.447V118.624H433.754V120.313C433.09 119.321 431.782 118.434 430.025 118.434C427.193 118.434 424.948 120.798 424.948 124.388ZM433.754 124.43C433.754 126.942 432.173 128.357 430.493 128.357C428.834 128.357 427.232 126.9 427.232 124.388C427.232 121.875 428.834 120.524 430.493 120.524C432.173 120.524 433.754 121.939 433.754 124.43Z" fill="#202020"/>
</svg>
