<svg width="19" height="20" viewBox="0 0 19 20" fill="none" xmlns="http://www.w3.org/2000/svg">
<path d="M3.91669 8.24548H5.98128V10.0016H3.91669V8.24548Z" fill="#F89F1F"/>
<path d="M7.9762 8.24548H10.0408V10.0016H7.9762V8.24548Z" fill="#F89F1F"/>
<path d="M12.0357 8.24548H14.1003V10.0016H12.0357V8.24548Z" fill="#F89F1F"/>
<path d="M3.91669 11.2695H5.98128V13.0254H3.91669V11.2695Z" fill="#F89F1F"/>
<path d="M7.9762 11.2695H10.0408V13.0254H7.9762V11.2695Z" fill="#F89F1F"/>
<path d="M12.0357 11.2695H14.1003V13.0254H12.0357V11.2695Z" fill="#F89F1F"/>
<path d="M3.91669 14.293H5.98128V16.049H3.91669V14.293Z" fill="#F89F1F"/>
<path d="M7.9762 14.293H10.0408V16.049H7.9762V14.293Z" fill="#F89F1F"/>
<path d="M12.0357 14.293H14.1003V16.049H12.0357V14.293Z" fill="#F89F1F"/>
<path d="M18.0179 1.28637H13.4165V0H11.8322V1.28637H6.18569V0H4.60131V1.28637H0V19.3805H18.018L18.0179 1.28637ZM1.55451 2.84119H4.60089V3.81048H6.18527V2.84119H11.8317V3.81048H13.4161V2.84119H16.4625V5.61194H1.5542L1.55451 2.84119ZM16.4628 17.8256H1.55451V7.19678H16.4628V17.8256Z" fill="#F89F1F"/>
</svg>
