<svg width="20" height="21" viewBox="0 0 20 21" fill="none" xmlns="http://www.w3.org/2000/svg">
<path d="M17.7083 3.12201H16.0594V3.59122C16.0594 4.10681 15.7844 4.58327 15.3379 4.84107C14.8912 5.09887 14.341 5.09887 13.8945 4.84107C13.448 4.58327 13.1731 4.10682 13.1731 3.59122V3.12225L6.37178 3.12201V3.59122C6.37178 4.10681 6.09683 4.58327 5.65034 4.84107C5.2036 5.09887 4.65346 5.09887 4.20695 4.84107C3.76045 4.58327 3.48551 4.10682 3.48551 3.59122V3.12225L1.77516 3.12201C1.30474 3.12129 0.853191 3.30733 0.52024 3.63978C0.187301 3.972 4.90772e-05 4.42333 4.90772e-05 4.89372V7.55652H19.4835V4.89372C19.4835 4.4233 19.2963 3.97199 18.9634 3.63978C18.6304 3.30733 18.1788 3.12129 17.7084 3.12201L17.7083 3.12201ZM0 8.99966V19.1818C0 19.6522 0.187246 20.1033 0.520191 20.4357C0.85313 20.7679 1.30473 20.9542 1.77511 20.9533H17.7083C18.1787 20.9542 18.6303 20.7679 18.9632 20.4357C19.2961 20.1033 19.4834 19.6522 19.4834 19.1818V8.99966H0Z" fill="#F89F1F"/>
<path d="M15.3382 1.21388V3.59155C15.3382 3.98996 15.0149 4.31299 14.6165 4.31299C14.2178 4.31299 13.8948 3.98996 13.8948 3.59155V1.21388C13.8948 0.815224 14.2178 0.492188 14.6165 0.492188C15.0149 0.492188 15.3382 0.815224 15.3382 1.21388Z" fill="#F89F1F"/>
<path d="M5.65017 1.21388V3.59155C5.65017 3.98996 5.3269 4.31299 4.92848 4.31299C4.52982 4.31299 4.20679 3.98996 4.20679 3.59155V1.21388C4.20679 0.815224 4.52982 0.492188 4.92848 0.492188C5.3269 0.492188 5.65017 0.815224 5.65017 1.21388Z" fill="#F89F1F"/>
</svg>
