<svg width="22" height="22" viewBox="0 0 22 22" fill="none" xmlns="http://www.w3.org/2000/svg">
<path fill-rule="evenodd" clip-rule="evenodd" d="M4.90389 1.11915L8.12656 5.2748C8.46579 5.78366 8.46579 6.46211 8.04165 6.88624L5.83664 9.09125C4.90365 10.109 11.7734 16.9782 12.7911 16.0457L14.9961 13.8407C15.4203 13.4166 16.0987 13.4166 16.6076 13.7558L20.8482 16.9785C21.2723 17.4026 21.357 17.9962 20.9331 18.4203L18.5585 20.795L18.3888 21.0495C15.4205 24.0178 7.95709 18.5899 5.58278 16.3C3.29289 13.9254 -2.05002 6.46238 0.833346 3.57871L3.46249 0.949563C3.88663 0.525424 4.4802 0.610331 4.90432 1.11918L4.90389 1.11915ZM11.9431 4.17222C11.1797 4.08731 11.3494 2.98491 12.028 3.06964C15.4203 3.57849 18.0495 6.12271 18.4737 9.51528C18.6433 10.1937 17.456 10.3633 17.3711 9.60019C16.9469 6.80144 14.7419 4.59643 11.9431 4.17225L11.9431 4.17222ZM11.7735 1.11915C11.0101 1.03424 11.1798 -0.153085 11.8584 0.016566C16.9469 0.69502 20.933 4.59635 21.6113 9.60006C21.6962 10.3634 20.5936 10.533 20.5088 9.76967C19.8303 5.27477 16.2682 1.71274 11.7735 1.11916L11.7735 1.11915Z" fill="#389D61"/>
</svg>
