<svg width="120" height="120" viewBox="0 0 120 120" fill="none" xmlns="http://www.w3.org/2000/svg">
<path fill-rule="evenodd" clip-rule="evenodd" d="M17.9979 101.95C-5.18483 78.7674 -5.18483 41.1804 17.9979 17.998C41.1806 -5.18467 78.7676 -5.18467 101.95 17.998C125.133 41.1807 125.133 78.7678 101.95 101.95C78.7672 125.132 41.1802 125.133 17.9979 101.95ZM59.2087 48.5275L41.6562 30.975C40.813 30.1317 39.4458 30.1317 38.6026 30.975L30.9714 38.6062C30.1281 39.4494 30.1281 40.8166 30.9714 41.6598L48.5239 59.2123C48.9455 59.634 48.9455 60.3176 48.5239 60.7392L30.9714 78.2932C30.1281 79.1364 30.1281 80.5021 30.9714 81.3454L38.6026 88.9781C39.4458 89.8213 40.813 89.8213 41.6562 88.9781L59.2087 71.4241C59.6304 71.0024 60.314 71.0024 60.7355 71.4241L78.2896 88.9781C79.1328 89.8213 80.4985 89.8213 81.3418 88.9781L88.9745 81.3454C89.8177 80.5021 89.8177 79.1364 88.9745 78.2932L71.4205 60.7392C70.9988 60.3175 70.9988 59.6339 71.4205 59.2123L88.9745 41.6598C89.8177 40.8166 89.8177 39.4494 88.9745 38.6062L81.3418 30.975C80.4985 30.1317 79.1328 30.1317 78.2896 30.975L60.7355 48.5275C60.3139 48.9491 59.6303 48.9491 59.2087 48.5275Z" fill="white" fill-opacity="0.7"/>
</svg>
