<svg width="33" height="33" viewBox="0 0 33 33" fill="none" xmlns="http://www.w3.org/2000/svg">
<path fill-rule="evenodd" clip-rule="evenodd" d="M5.65185 28.113C-0.550617 21.9105 -0.550617 11.8542 5.65185 5.65185C11.8543 -0.550617 21.9106 -0.550617 28.113 5.65185C34.3155 11.8543 34.3155 21.9106 28.113 28.113C21.9105 34.3154 11.8542 34.3155 5.65185 28.113ZM16.6777 13.8199L11.9816 9.12379C11.756 8.89819 11.3902 8.89819 11.1646 9.12379L9.12288 11.1655C8.89727 11.3911 8.89727 11.7569 9.12288 11.9825L13.819 16.6786C13.9318 16.7914 13.9318 16.9743 13.819 17.0871L9.12288 21.7837C8.89727 22.0093 8.89727 22.3747 9.12288 22.6003L11.1646 24.6424C11.3902 24.868 11.756 24.868 11.9816 24.6424L16.6777 19.9458C16.7905 19.833 16.9734 19.833 17.0862 19.9458L21.7827 24.6424C22.0083 24.868 22.3737 24.868 22.5993 24.6424L24.6415 22.6003C24.8671 22.3747 24.8671 22.0093 24.6415 21.7837L19.9449 17.0871C19.8321 16.9743 19.8321 16.7914 19.9449 16.6786L24.6415 11.9825C24.8671 11.7569 24.8671 11.3911 24.6415 11.1655L22.5993 9.12379C22.3737 8.89819 22.0083 8.89819 21.7827 9.12379L17.0862 13.8199C16.9734 13.9327 16.7905 13.9327 16.6777 13.8199Z" fill="#FF2626" fill-opacity="0.7"/>
</svg>
