<svg width="120" height="121" viewBox="0 0 120 121" fill="none" xmlns="http://www.w3.org/2000/svg">
<path d="M60.0003 0.835388C27.3024 0.835388 0.719727 27.418 0.719727 60.1159C0.719727 92.8138 27.3024 119.396 60.0003 119.396C92.6982 119.396 119.281 92.8138 119.281 60.1159C119.281 27.418 92.6982 0.835388 60.0003 0.835388ZM89.9526 47.8854L54.1346 83.7034C53.1361 84.7019 51.5134 84.7019 50.6402 83.7034L30.0484 63.1116C29.0499 62.1131 29.0499 60.4903 30.0484 59.6172L37.9111 51.7545C38.9097 50.756 40.5324 50.756 41.4056 51.7545L52.3883 62.7372L78.5965 36.529C79.5951 35.5304 81.2178 35.5304 82.091 36.529L89.9537 44.3917C90.9505 45.3902 90.9505 46.8875 89.9519 47.8861L89.9526 47.8854Z" fill="white" fill-opacity="0.7"/>
</svg>
