<svg width="199" height="115" viewBox="0 0 199 115" fill="none" xmlns="http://www.w3.org/2000/svg">
<path fill-rule="evenodd" clip-rule="evenodd" d="M114.99 9.39472C129.799 11.2388 142.615 19.4109 150.581 31.0856C152.47 30.8332 154.398 30.7029 156.357 30.7029C179.908 30.7029 199 49.5402 199 72.7771C199 96.0141 179.908 114.851 156.357 114.851C145.865 114.851 136.258 111.113 128.829 104.912C122.635 107.585 115.794 109.069 108.603 109.069C101.8 109.069 95.3114 107.741 89.3864 105.335C81.8837 111.289 72.3506 114.851 61.9743 114.851C37.7953 114.851 18.1943 95.505 18.1943 71.64C18.1943 52.9777 30.1806 37.0787 46.9691 31.0334C51.8845 13.1521 68.4499 0 88.1286 0C98.3097 0 107.657 3.52038 114.99 9.39472Z" fill="#FCF0F0"/>
<path d="M119.855 18.9547C119.561 18.3667 119.109 17.8714 118.55 17.5265C117.99 17.1807 117.345 16.9992 116.688 17H94.2095C93.5524 16.9992 92.9069 17.1807 92.3476 17.5265C91.7883 17.8714 91.3357 18.3667 91.0425 18.9547L85.8149 29.4929H68V36.5579H73.0272L73.028 106.743C73.028 107.68 73.4001 108.579 74.0621 109.241C74.7249 109.904 75.6234 110.276 76.5597 110.276H134.348C135.285 110.276 136.183 109.904 136.846 109.241C137.508 108.579 137.88 107.68 137.88 106.743V36.5558H142.907L142.908 29.4917H125.093L119.855 18.9547ZM96.4009 24.065H114.509L117.229 29.4929H93.6808L96.4009 24.065ZM93.9518 95.4278H86.8868V46.7999H93.9518V95.4278ZM108.988 95.4278H101.923V46.7999H108.988V95.4278ZM124.023 95.4278H116.958V46.7999H124.023V95.4278Z" fill="#FF6767"/>
<circle cx="155.843" cy="20.8429" r="2.84286" fill="#999999"/>
<circle r="2.84286" transform="matrix(-1 0 0 1 2.84293 86.9914)" fill="#FFBBBB"/>
<path d="M28.4286 22.4218H25.9001V25.0171H24.1342V22.4218H21.6057V20.7896H24.1342V18.1943H25.9001V20.7896H28.4286V22.4218Z" fill="#FF6767"/>
</svg>
