<svg width="32" height="32" viewBox="0 0 32 32" fill="none" xmlns="http://www.w3.org/2000/svg">
<circle cx="16" cy="16" r="16" fill="#F82D2D"/>
<path d="M18.763 8.59297C18.7134 8.49376 18.6372 8.4102 18.5428 8.352C18.4483 8.29367 18.3395 8.26305 18.2287 8.26318H14.4363C14.3254 8.26305 14.2165 8.29367 14.1222 8.352C14.0278 8.4102 13.9514 8.49376 13.902 8.59297L13.02 10.3709H10.0144V11.5629H10.8626L10.8627 23.404C10.8627 23.5621 10.9255 23.7137 11.0372 23.8254C11.149 23.9372 11.3006 24 11.4585 24H21.2082C21.3662 24 21.5178 23.9373 21.6296 23.8254C21.7413 23.7137 21.8041 23.5622 21.8041 23.404V11.5625H22.6522L22.6524 10.3707H19.6468L18.763 8.59297ZM14.806 9.45514H17.8611L18.32 10.3709H14.3471L14.806 9.45514ZM14.3928 21.495H13.2009V13.2908H14.3928V21.495ZM16.9295 21.495H15.7376V13.2908H16.9295V21.495ZM19.4663 21.495H18.2743V13.2908H19.4663V21.495Z" fill="white"/>
</svg>
