<svg width="50" height="52" viewBox="0 0 50 52" fill="none" xmlns="http://www.w3.org/2000/svg">
<path d="M1.46703 -0.000928677C1.46489 0.000142774 1.46275 0.000857014 1.46096 0.00192847C1.06561 0.041571 0.699537 0.226568 0.433489 0.521215C0.167057 0.815862 0.0199211 1.19872 0.0202777 1.59587V39.8048C0.018492 40.2312 0.187418 40.6408 0.488849 40.9422C0.790636 41.244 1.19992 41.4126 1.62631 41.4112H20.4643C20.2078 40.2601 20.0643 39.0672 20.0643 37.8423C20.0643 28.7447 27.5264 21.2827 36.6238 21.2827C38.2938 21.2827 39.9066 21.5409 41.4302 22.0077V1.59537C41.4284 1.17323 41.2602 0.768941 40.9616 0.470344C40.6631 0.171775 40.2588 0.00319932 39.8366 0.00141647H27.48V14.7516C27.4786 16.0248 26.0653 16.7862 25.0019 16.0859L20.724 13.2766L16.4615 16.0862C15.3979 16.7865 13.9815 16.0247 13.98 14.7515V0.00132504H1.62713C1.57428 -0.00224635 1.52106 -0.0033178 1.46785 -0.00153211L1.46703 -0.000928677ZM17.1799 0.00228559V11.7865L19.8518 10.0272C20.3857 9.67581 21.0771 9.67581 21.611 10.0272L24.2799 11.7865V0.00228559H17.1799ZM36.6241 24.4832C29.2673 24.4832 23.2645 30.4857 23.2645 37.8427C23.2645 45.1998 29.267 51.2023 36.6241 51.2023C43.9809 51.2023 49.9809 45.1998 49.9809 37.8427C49.9809 30.4857 43.9812 24.4832 36.6241 24.4832V24.4832ZM36.5991 30.0832C37.0319 30.0746 37.4498 30.2421 37.7573 30.5471C38.0648 30.8521 38.2355 31.2689 38.2301 31.7018V39.5332C38.228 40.1039 37.9219 40.63 37.4269 40.9142L33.2676 43.3114C32.9002 43.5664 32.4423 43.6557 32.0058 43.5578C31.5691 43.4599 31.1933 43.1835 30.9698 42.796C30.7462 42.4085 30.6951 41.945 30.8287 41.5179C30.9626 41.0911 31.2691 40.7396 31.6741 40.5489L35.0273 38.6114V31.7022L35.0269 31.7018C35.0219 31.2793 35.1848 30.8718 35.4791 30.5683C35.7737 30.2651 36.1762 30.0908 36.5991 30.0833L36.5991 30.0832Z" fill="#C2C2C2"/>
</svg>
