<svg width="44" height="48" viewBox="0 0 44 48" fill="none" xmlns="http://www.w3.org/2000/svg">
<path d="M37.1243 5.46762V7.99973C37.1225 9.76715 36.3974 11.4618 35.1084 12.7114C33.8198 13.9614 32.0722 14.664 30.2496 14.6662H13.7499C11.9273 14.664 10.1797 13.9613 8.8911 12.7114C7.602 11.4618 6.87696 9.76715 6.87519 7.99973V5.46762C4.95545 5.77879 3.21155 6.73996 1.95286 8.17961C0.694165 9.61983 0.00223925 11.4452 0 13.3327V40C0 42.1214 0.869181 44.1562 2.4165 45.6567C3.96382 47.1571 6.06223 48 8.24985 48H35.7502C37.9378 48 40.0362 47.1571 41.5835 45.6567C43.1308 44.1562 44 42.1214 44 40V13.3327C43.9977 11.4452 43.3058 9.61983 42.0471 8.17961C40.7884 6.73985 39.0446 5.77871 37.1248 5.46762H37.1243ZM32.3981 25.6664L21.3985 39H21.398C20.9086 39.5911 20.1835 39.9523 19.4027 39.9947C19.3516 39.9974 19.3005 40 19.2499 40C18.5202 40.0005 17.8204 39.7197 17.3057 39.2183L11.8057 33.8849V33.8853C11.1216 33.2099 10.8582 32.2331 11.1137 31.3193C11.3693 30.4055 12.1054 29.6916 13.0477 29.4434C13.9901 29.1956 14.9974 29.451 15.6939 30.1148L19.0215 33.3416L28.1009 22.3332C28.716 21.5912 29.6919 21.2229 30.6619 21.3666C31.6324 21.5104 32.4505 22.1452 32.8081 23.0313C33.1659 23.9179 33.0098 24.9219 32.398 25.6666L32.3981 25.6664ZM11.0004 8.00018V5.33322H16.5004H16.5C16.5 3.42786 17.5482 1.66718 19.2502 0.714503C20.9518 -0.238167 23.0483 -0.238167 24.7498 0.714503C26.4518 1.66717 27.5001 3.42786 27.5001 5.33322H33.0001L32.9997 8.00018C32.9997 8.70732 32.7101 9.38543 32.1945 9.88543C31.6789 10.3859 30.9792 10.6667 30.2499 10.6667H13.7502C13.0209 10.6667 12.3212 10.3859 11.8056 9.88543C11.2899 9.38543 11.0004 8.70727 11.0004 8.00018H11.0004Z" fill="#C2C2C2"/>
</svg>
