<svg width="48" height="47" viewBox="0 0 48 47" fill="none" xmlns="http://www.w3.org/2000/svg">
<path d="M32.174 -6.10352e-05H7.67064C3.82504 -6.10352e-05 0.669678 3.1553 0.669678 7.0009V36.4345C0.669678 40.2801 3.82504 43.4355 7.67064 43.4355H21.6233C19.9471 40.8224 18.9611 37.7163 18.9611 34.4131C18.9611 33.9199 19.0103 33.4271 19.0103 32.9339L11.467 32.9343C10.3331 32.9343 9.39628 31.9974 9.39628 30.8636C9.39628 29.7297 10.3331 28.7929 11.467 28.7929H19.947C20.5881 26.9688 21.574 25.2431 22.8066 23.7639H11.467C10.3331 23.7639 9.39628 22.8271 9.39628 21.6932C9.39628 20.5593 10.3331 19.6225 11.467 19.6225H27.8847C30.2019 18.3899 32.8642 17.6997 35.6745 17.6997C36.8579 17.6997 38.041 17.8476 39.1752 18.0942L39.1748 7.00111C39.1748 3.15551 36.069 0.0001508 32.1739 0.0001508L32.174 -6.10352e-05ZM28.378 14.6428H11.4672C10.3333 14.6428 9.39649 13.706 9.39649 12.5721C9.39649 11.4382 10.3333 10.5014 11.4672 10.5014H28.378C29.5118 10.5014 30.4487 11.4382 30.4487 12.5721C30.449 13.706 29.5122 14.6428 28.3783 14.6428H28.378Z" fill="#C2C2C2"/>
<path d="M35.6745 22.1369C28.8707 22.1369 23.3489 27.6587 23.3489 34.4625C23.3489 41.2664 28.8707 46.7882 35.6745 46.7882C42.4783 46.7882 48.0001 41.2664 48.0001 34.4625C48.0001 27.6587 42.478 22.1369 35.6745 22.1369ZM41.0976 36.336H33.653V28.7433C33.653 27.8064 34.3924 27.0175 35.3788 27.0175C36.3156 27.0175 37.1045 27.7569 37.1045 28.7433V32.9342H41.0976C42.0345 32.9342 42.8234 33.6736 42.8234 34.6599C42.8234 35.5964 42.084 36.3361 41.0976 36.3361V36.336Z" fill="#C2C2C2"/>
</svg>
