<svg width="18" height="22" viewBox="0 0 18 22" fill="none" xmlns="http://www.w3.org/2000/svg">
<path d="M11.7 17.7692C11.7 17.0959 11.9845 16.4503 12.4907 15.9742C12.9972 15.4982 13.6838 15.2308 14.4 15.2308H18V2.53846C18 1.86512 17.7155 1.21957 17.2093 0.743407C16.7028 0.267443 16.0162 0 15.3 0H2.7C1.98381 0 1.29718 0.267443 0.790714 0.743407C0.284462 1.21956 0 1.86512 0 2.53846V19.4615C0 20.1349 0.284462 20.7804 0.790714 21.2566C1.29717 21.7326 1.98381 22 2.7 22H11.7V17.7692ZM4.90063 5.21908L7.60063 3.52677C7.7736 3.41817 7.98132 3.36944 8.18846 3.3887C8.39538 3.40797 8.58884 3.49409 8.73591 3.63235L10.0144 4.83399L12.1006 3.5268C12.3682 3.36229 12.7083 3.34359 12.9944 3.47769C13.2805 3.6116 13.4693 3.8783 13.491 4.17802C13.5125 4.47776 13.3634 4.76578 13.0991 4.93462L10.3991 6.62693C10.2261 6.73554 10.0184 6.78426 9.81124 6.765C9.60432 6.74574 9.41086 6.65961 9.26378 6.52135L7.98532 5.31972L5.89907 6.6269C5.70058 6.75383 5.4563 6.80105 5.22067 6.75779C4.98483 6.71454 4.7773 6.58441 4.64411 6.39666C4.51092 6.20873 4.4631 5.97869 4.51132 5.7575C4.55953 5.53632 4.69956 5.34255 4.90065 5.21901L4.90063 5.21908ZM5.39985 8.46149H12.5998C12.9215 8.46149 13.2186 8.62279 13.3793 8.88457C13.54 9.14635 13.54 9.46894 13.3793 9.73072C13.2186 9.9925 12.9215 10.1538 12.5998 10.1538H5.39985C5.07822 10.1538 4.78111 9.9925 4.62039 9.73072C4.45968 9.46894 4.45968 9.14634 4.62039 8.88457C4.78111 8.62279 5.07823 8.46149 5.39985 8.46149ZM4.49985 12.6923C4.49985 12.4679 4.59467 12.2526 4.76342 12.0939C4.93217 11.9353 5.16119 11.8461 5.39985 11.8461H12.5998C12.9215 11.8461 13.2186 12.0074 13.3793 12.2692C13.54 12.531 13.54 12.8536 13.3793 13.1153C13.2186 13.3771 12.9215 13.5384 12.5998 13.5384H5.39985C5.16119 13.5384 4.93217 13.4493 4.76342 13.2906C4.59467 13.132 4.49985 12.9166 4.49985 12.6923ZM14.3998 16.923H17.9998C17.9978 18.1218 17.545 19.2811 16.7214 20.1962C15.8979 21.1113 14.7569 21.7232 13.4998 21.9238V17.7691C13.5 17.5448 13.5951 17.3296 13.7636 17.171C13.9324 17.0125 14.1612 16.9232 14.3998 16.923L14.3998 16.923Z" fill="#20A8D2"/>
</svg>
