<svg width="32" height="32" viewBox="0 0 32 32" fill="none" xmlns="http://www.w3.org/2000/svg">
<circle cx="16" cy="16" r="16" fill="#F89F1F"/>
<path d="M22.1313 14.6987L23.2513 13.5787H23.2512C23.6772 13.1503 23.9164 12.5709 23.9164 11.967C23.9164 11.363 23.6772 10.7835 23.2512 10.3552L21.5395 8.64346C21.1044 8.23016 20.5275 8 19.9276 8C19.3278 8 18.751 8.23018 18.316 8.64346L17.1959 9.76331L22.1313 14.6987Z" fill="white"/>
<path d="M15.903 11.0563L10.1757 16.7836C10.05 16.9108 9.96439 17.0722 9.9299 17.2479L9.01927 21.8007C8.95658 22.1008 9.049 22.4121 9.26508 22.6294C9.43695 22.7997 9.66962 22.8948 9.91161 22.8935H10.0938L14.6465 21.9828C14.8222 21.9483 14.9836 21.8628 15.1109 21.737L20.8382 15.9912L15.903 11.0563Z" fill="white"/>
</svg>
