<svg width="33" height="27" viewBox="0 0 33 27" fill="none" xmlns="http://www.w3.org/2000/svg">
<path fill-rule="evenodd" clip-rule="evenodd" d="M21.3115 15.1862L33 5.8878V21.9375C33 24.7287 30.7791 27 28.0499 27H4.95007C2.22088 27 0 24.7287 0 21.9375V5.8878L11.6885 15.1862C13.1043 16.3117 14.8019 16.8753 16.4999 16.8753C18.1979 16.8753 19.8957 16.3117 21.3113 15.1862H21.3115ZM13.7138 12.5213L0.827369 2.26968C1.7152 0.904602 3.22978 0 4.94929 0H28.0491C29.7704 0 31.2849 0.904602 32.1727 2.26968L19.2863 12.5213C17.646 13.8259 15.3543 13.8259 13.7141 12.5213H13.7138Z" fill="#BBBBBB"/>
</svg>
