<svg width="48" height="47" viewBox="0 0 48 47" fill="none" xmlns="http://www.w3.org/2000/svg">
<path d="M32.1739 -6.10352e-05H7.67054C3.82495 -6.10352e-05 0.669586 3.1553 0.669586 7.0009V36.4345C0.669586 40.2801 3.82495 43.4355 7.67054 43.4355H21.6232C19.947 40.8224 18.961 37.7163 18.961 34.4131C18.961 33.9199 19.0102 33.4271 19.0102 32.9339L11.4669 32.9343C10.333 32.9343 9.39618 31.9974 9.39618 30.8636C9.39618 29.7297 10.333 28.7929 11.4669 28.7929H19.9469C20.588 26.9688 21.5739 25.2431 22.8065 23.7639H11.4669C10.333 23.7639 9.39618 22.8271 9.39618 21.6932C9.39618 20.5593 10.333 19.6225 11.4669 19.6225H27.8846C30.2019 18.3899 32.8641 17.6997 35.6744 17.6997C36.8578 17.6997 38.0409 17.8476 39.1751 18.0942L39.1747 7.00111C39.1747 3.15551 36.0689 0.0001508 32.1738 0.0001508L32.1739 -6.10352e-05ZM28.3779 14.6428H11.4671C10.3332 14.6428 9.3964 13.706 9.3964 12.5721C9.3964 11.4382 10.3332 10.5014 11.4671 10.5014H28.3779C29.5117 10.5014 30.4486 11.4382 30.4486 12.5721C30.4489 13.706 29.5121 14.6428 28.3782 14.6428H28.3779Z" fill="#F89F1F"/>
<path d="M35.6744 22.1369C28.8706 22.1369 23.3488 27.6587 23.3488 34.4625C23.3488 41.2664 28.8706 46.7882 35.6744 46.7882C42.4783 46.7882 48 41.2664 48 34.4625C48 27.6587 42.4779 22.1369 35.6744 22.1369ZM41.0975 36.336H33.6529V28.7433C33.6529 27.8064 34.3923 27.0175 35.3787 27.0175C36.3155 27.0175 37.1045 27.7569 37.1045 28.7433V32.9342H41.0975C42.0344 32.9342 42.8233 33.6736 42.8233 34.6599C42.8233 35.5964 42.0839 36.3361 41.0975 36.3361V36.336Z" fill="#F89F1F"/>
</svg>
