<svg width="44" height="44" viewBox="0 0 44 44" fill="none" xmlns="http://www.w3.org/2000/svg">
<path d="M6.36613 -6.10352e-05C2.88191 -6.10352e-05 9.42054e-05 2.88181 9.42054e-05 6.36608V13.2006H43.9993V6.36608C43.9993 2.88181 41.1175 -6.10352e-05 37.6333 -6.10352e-05H6.36613ZM29.3215 4.40286H35.1979H35.1975C35.7811 4.40544 36.3393 4.63924 36.7502 5.0531C37.1611 5.46732 37.3909 6.02773 37.3883 6.61091C37.3861 7.19119 37.1545 7.7472 36.7443 8.15732C36.3338 8.56786 35.7778 8.79946 35.1976 8.80166H29.3212C28.7409 8.79945 28.1849 8.56785 27.7748 8.15732C27.3643 7.74714 27.1327 7.19117 27.1305 6.61091C27.1283 6.02768 27.358 5.46727 27.7686 5.0531C28.1795 4.63924 28.738 4.40543 29.3213 4.40286H29.3215ZM0 17.5991V37.6338C0 41.1177 2.88182 43.9999 6.36604 43.9999H37.634C41.1182 43.9999 44 41.1177 44 37.6338V17.5991H0ZM21.9977 22.7325C22.581 22.7347 23.1395 22.9689 23.5504 23.3828C23.9613 23.797 24.1907 24.3574 24.1885 24.9406V35.1987C24.1874 35.7798 23.9566 36.3368 23.546 36.7482C23.1355 37.1595 22.5787 37.3914 21.9977 37.3936C21.4138 37.3962 20.8527 37.1661 20.4384 36.7541C20.0242 36.3424 19.7912 35.7827 19.7897 35.1988V24.9406C19.7875 24.3544 20.0194 23.7915 20.434 23.3769C20.8486 22.9623 21.4116 22.7303 21.9978 22.7325H21.9977ZM13.2005 27.1314C13.7867 27.1292 14.3496 27.3608 14.7643 27.7754C15.1788 28.1899 15.4108 28.7529 15.4082 29.3391V35.1986C15.4071 35.7826 15.174 36.3423 14.7598 36.7539C14.3456 37.1659 13.7845 37.396 13.2005 37.3935C12.6195 37.3912 12.0629 37.1593 11.6523 36.748C11.2417 36.3367 11.0109 35.7797 11.0098 35.1986V29.3391C11.0076 28.7558 11.237 28.1954 11.6478 27.7816C12.0588 27.3674 12.6173 27.1336 13.2005 27.1314L13.2005 27.1314ZM30.7993 27.1314C31.3825 27.1336 31.941 27.3674 32.352 27.7816C32.7629 28.1955 32.9923 28.7559 32.9901 29.3391V35.1986C32.9889 35.7796 32.7581 36.3366 32.3476 36.748C31.937 37.1593 31.3803 37.3912 30.7993 37.3934C30.2153 37.396 29.6543 37.1659 29.24 36.7539C28.8258 36.3422 28.5927 35.7825 28.5912 35.1986V29.3391C28.589 28.7529 28.821 28.19 29.2356 27.7754C29.6502 27.3608 30.2131 27.1292 30.7993 27.1314L30.7993 27.1314Z" fill="#F89F1F"/>
</svg>
