<svg width="50" height="52" viewBox="0 0 50 52" fill="none" xmlns="http://www.w3.org/2000/svg">
<path d="M1.46728 -0.000928677C1.46514 0.000142774 1.46299 0.000857014 1.46121 0.00192847C1.06585 0.041571 0.699781 0.226568 0.433733 0.521215C0.167301 0.815862 0.0201653 1.19872 0.0205218 1.59587V39.8048C0.0187361 40.2312 0.187662 40.6409 0.489093 40.9422C0.790881 41.244 1.20016 41.4126 1.62656 41.4112H20.4645C20.2081 40.2601 20.0645 39.0672 20.0645 37.8423C20.0645 28.7447 27.5266 21.2827 36.624 21.2827C38.2941 21.2827 39.9069 21.5409 41.4304 22.0077V1.59537C41.4287 1.17323 41.2604 0.768941 40.9619 0.470344C40.6633 0.171775 40.259 0.00319932 39.8368 0.00141647H27.4803V14.7516C27.4788 16.0248 26.0656 16.7862 25.0021 16.0859L20.7242 13.2766L16.4618 16.0862C15.3982 16.7865 13.9818 16.0247 13.9803 14.7515V0.00132504H1.62738C1.57452 -0.00224635 1.5213 -0.0033178 1.46809 -0.00153211L1.46728 -0.000928677ZM17.1802 0.00228559V11.7865L19.852 10.0272C20.3859 9.67581 21.0773 9.67581 21.6113 10.0272L24.2802 11.7865V0.00228559H17.1802ZM36.6243 24.4832C29.2675 24.4832 23.2648 30.4857 23.2648 37.8427C23.2648 45.1998 29.2672 51.2023 36.6243 51.2023C43.9811 51.2023 49.9811 45.1998 49.9811 37.8427C49.9811 30.4857 43.9815 24.4832 36.6243 24.4832ZM36.5993 30.0832C37.0322 30.0746 37.45 30.2421 37.7575 30.5471C38.065 30.8521 38.2357 31.2689 38.2304 31.7018V39.5332C38.2282 40.1039 37.9222 40.63 37.4272 40.9142L33.2679 43.3114C32.9004 43.5664 32.4425 43.6557 32.0061 43.5578C31.5693 43.4599 31.1936 43.1835 30.97 42.796C30.7464 42.4085 30.6954 41.945 30.8289 41.5178C30.9629 41.0911 31.2693 40.7396 31.6743 40.5489L35.0275 38.6114V31.7022L35.0272 31.7018C35.0222 31.2793 35.185 30.8718 35.4793 30.5683C35.774 30.2651 36.1765 30.0908 36.5993 30.0833L36.5993 30.0832Z" fill="#F89F1F"/>
</svg>
