<svg width="26" height="14" viewBox="0 0 26 14" fill="none" xmlns="http://www.w3.org/2000/svg">
<path d="M25.8213 6.48386C24.564 4.8628 20.1637 0 13.0029 0C5.84205 0 1.46903 4.86289 0.184454 6.48386C-0.0614847 6.78104 -0.0614847 7.21334 0.184454 7.51052C1.4418 9.13158 5.84205 13.9944 13.0029 13.9944C20.1637 13.9944 24.5367 9.13148 25.8213 7.51052C26.04 7.21333 26.04 6.78103 25.8213 6.48386ZM13.0029 12.2113C10.0783 12.2113 7.72792 9.88788 7.72792 6.99716C7.72792 4.10635 10.0784 1.78306 13.0029 1.78306C15.9274 1.78306 18.2778 4.10644 18.2778 6.99716C18.2778 9.88798 15.9275 12.2113 13.0029 12.2113Z" fill="white"/>
<path d="M13.0029 3.64719C12.7022 3.64719 12.4288 3.67414 12.1557 3.75517C12.5656 4.07931 12.8117 4.53854 12.8117 5.10598C12.8117 6.05163 12.0464 6.80804 11.0897 6.80804C10.5432 6.80804 10.0511 6.56494 9.72316 6.1596C9.64118 6.42984 9.61392 6.72704 9.61392 6.99705C9.61392 8.86121 11.1444 10.3471 13.0031 10.3471C14.8615 10.3471 16.3922 8.83424 16.3922 6.99705C16.392 5.16025 14.8613 3.64716 13.0029 3.64716L13.0029 3.64719Z" fill="white"/>
</svg>
