<svg width="97" height="86" viewBox="0 0 97 86" fill="none" xmlns="http://www.w3.org/2000/svg">
<path d="M1.76718 33.7155C0.415081 35.2566 -0.206289 37.3072 0.0607443 39.34L5.38687 79.8084C5.85141 83.3383 8.88619 86 12.4465 86H83.5223C87.0751 86 90.1097 83.3442 90.5802 79.8236L95.9921 39.3552C96.2642 37.3198 95.6445 35.2667 94.2924 33.7213C92.9403 32.176 90.9873 31.2901 88.9342 31.2901H7.12058C5.06999 31.2901 3.11866 32.1743 1.76733 33.7155H1.76718Z" fill="#F89F1F"/>
<path d="M88.9345 26.5432C88.9464 26.5432 88.9574 26.5441 88.9693 26.5441L89.8195 8.20219C89.9102 6.23974 89.2134 4.37648 87.8562 2.95483C86.4999 1.53407 84.6705 0.750854 82.7066 0.750854H62.037C60.0381 0.750854 58.1197 1.59855 56.7736 3.07527L49.6428 10.9012C47.3989 13.3638 44.2014 14.7759 40.8707 14.7759H13.7876C9.86098 14.7759 6.66699 17.9701 6.66699 21.8965V26.5547C6.81788 26.5488 6.96792 26.5428 7.11966 26.5428L88.9345 26.5432Z" fill="#F89F1F"/>
</svg>
