<svg width="134" height="135" viewBox="0 0 134 135" fill="none" xmlns="http://www.w3.org/2000/svg">
<path d="M67 8.4375C55.4051 8.4375 44.0705 11.9015 34.4297 18.3913C24.7889 24.8812 17.2748 34.1055 12.8376 44.8978C8.4004 55.69 7.23943 67.5655 9.50149 79.0225C11.7635 90.4795 17.347 101.003 25.5459 109.263C33.7447 117.524 44.1907 123.149 55.5629 125.428C66.935 127.707 78.7225 126.537 89.4348 122.067C100.147 117.596 109.303 110.026 115.745 100.313C122.187 90.6006 125.625 79.1815 125.625 67.5C125.607 51.8411 119.425 36.8287 108.435 25.7562C97.4441 14.6837 82.5429 8.45537 67 8.4375V8.4375ZM67 118.125C53.6729 118.125 40.8916 112.791 31.4679 103.297C22.0442 93.8033 16.75 80.9266 16.75 67.5C16.75 54.0734 22.0442 41.1967 31.4679 31.7027C40.8916 22.2087 53.6729 16.875 67 16.875V67.5L102.514 103.279C97.8568 107.988 92.3218 111.724 86.2272 114.272C80.1326 116.819 73.5984 118.129 67 118.125Z" fill="white" fill-opacity="0.7"/>
</svg>
