<svg width="91" height="118" viewBox="0 0 91 118" fill="none" xmlns="http://www.w3.org/2000/svg">
<path d="M58.6731 94.8394C58.6731 91.2844 60.0851 87.8762 62.598 85.3623C65.1119 82.8494 68.5202 81.4374 72.0752 81.4374H89.9445V14.4272C89.9445 10.8722 88.5326 7.46402 86.0197 4.95006C83.5058 2.43716 80.0975 1.02518 76.5425 1.02518H13.9997C10.4447 1.02518 7.0365 2.43716 4.52254 4.95006C2.00964 7.46395 0.597656 10.8722 0.597656 14.4272V103.774C0.597656 107.329 2.00964 110.737 4.52254 113.251C7.03643 115.764 10.4447 117.176 13.9997 117.176H58.6731V94.8394ZM24.923 28.5798L38.325 19.6451C39.1836 19.0717 40.2147 18.8144 41.2428 18.9161C42.2699 19.0178 43.2302 19.4726 43.9603 20.2025L50.3062 26.5466L60.6617 19.6452C61.99 18.7767 63.6781 18.678 65.0982 19.386C66.5182 20.093 67.4555 21.501 67.5632 23.0834C67.6699 24.6659 66.93 26.1865 65.6177 27.078L52.2157 36.0127C51.3571 36.586 50.326 36.8433 49.2979 36.7416C48.2708 36.6399 47.3105 36.1852 46.5804 35.4552L40.2345 29.1111L29.879 36.0125C28.8937 36.6826 27.6812 36.9319 26.5116 36.7035C25.3409 36.4752 24.3108 35.7881 23.6497 34.7969C22.9886 33.8047 22.7512 32.5902 22.9906 31.4224C23.2299 30.2547 23.9249 29.2316 24.9231 28.5794L24.923 28.5798ZM27.401 45.6984H63.1397C64.7362 45.6984 66.211 46.5499 67.0087 47.932C67.8064 49.3141 67.8064 51.0173 67.0087 52.3994C66.211 53.7815 64.7361 54.6331 63.1397 54.6331H27.401C25.8045 54.6331 24.3297 53.7815 23.532 52.3994C22.7342 51.0173 22.7342 49.3141 23.532 47.932C24.3297 46.55 25.8045 45.6984 27.401 45.6984ZM22.9336 68.0351C22.9336 66.8504 23.4043 65.7137 24.2419 64.876C25.0795 64.0384 26.2163 63.5677 27.401 63.5677H63.1397C64.7362 63.5677 66.211 64.4193 67.0087 65.8014C67.8064 67.1835 67.8064 68.8867 67.0087 70.2688C66.211 71.6508 64.7361 72.5024 63.1397 72.5024H27.401C26.2163 72.5024 25.0795 72.0318 24.2419 71.1941C23.4043 70.3565 22.9336 69.2197 22.9336 68.0351ZM72.0744 90.3718H89.9438C89.9338 96.7009 87.6862 102.822 83.5979 107.653C79.5104 112.484 73.8465 115.715 67.6071 116.774V94.8389C67.6081 93.6543 68.0797 92.5185 68.9163 91.6809C69.754 90.8443 70.8898 90.3726 72.0744 90.3716L72.0744 90.3718Z" fill="white" fill-opacity="0.7"/>
</svg>
