<svg width="199" height="123" viewBox="0 0 199 123" fill="none" xmlns="http://www.w3.org/2000/svg">
<path fill-rule="evenodd" clip-rule="evenodd" d="M46.9691 31.0334C51.8845 13.1521 68.4499 -1.52588e-05 88.1286 -1.52588e-05C105.371 -1.52588e-05 120.223 10.097 126.943 24.6252C132.964 26.3087 138.529 29.0665 143.413 32.6762C147.495 31.3945 151.844 30.7028 156.357 30.7028C179.908 30.7028 199 49.5401 199 72.7771C199 96.0141 179.908 114.851 156.357 114.851C151.844 114.851 147.495 114.16 143.413 112.878C134.972 119.117 124.495 122.811 113.146 122.811C100.63 122.811 89.1759 118.319 80.3423 110.876C74.7566 113.428 68.5339 114.851 61.9743 114.851C37.7953 114.851 18.1943 95.505 18.1943 71.64C18.1943 52.9777 30.1806 37.0786 46.9691 31.0334Z" fill="#FFF4E4"/>
<path fill-rule="evenodd" clip-rule="evenodd" d="M152.129 61.759C142.572 61.759 134.818 69.3994 134.818 78.8201C134.818 88.2587 142.571 95.8991 152.129 95.8991C161.69 95.8991 169.434 88.2587 169.434 78.8201C169.434 69.4002 161.691 61.759 152.129 61.759ZM160.695 79.4041C160.695 80.1281 160.103 80.7208 159.364 80.7208H154.041V85.9703C154.041 86.699 153.449 87.287 152.706 87.287H151.379C150.645 87.287 150.048 86.7029 150.048 85.9703V80.7208H144.725C143.986 80.7208 143.39 80.1273 143.39 79.4041V78.0875C143.39 77.3634 143.991 76.7708 144.725 76.7708H150.048V71.5213C150.048 70.7926 150.65 70.2046 151.379 70.2046H152.706C153.449 70.2046 154.041 70.7887 154.041 71.5213V76.7708H159.364C160.103 76.7708 160.695 77.3642 160.695 78.0875V79.4041ZM81.5919 48.3376H143.084C149.411 48.3376 149.411 41.8599 143.326 41.8599H100.83C98.3908 41.8599 97.1738 38.2595 97.1738 38.2595C97.1738 38.2595 95.4692 32.9771 92.0638 32.9771H60.4127C55.7847 32.9771 57.0018 38.2641 57.0018 38.2641C57.0018 38.2641 64.0675 97.4888 64.5504 101.094C65.0428 104.694 68.8081 105.754 68.8081 105.754L77.0917 53.367C77.6983 49.5374 80.3742 48.4537 81.5912 48.3372L81.5919 48.3376ZM129.789 78.3493C129.789 66.2015 139.778 56.3479 152.106 56.3479C154.526 56.3479 156.846 56.7404 159.025 57.4457L159.503 54.4565C159.503 52.3409 157.76 50.6175 155.605 50.6175L83.543 50.6167C81.3927 50.6167 79.65 52.3353 79.65 54.4558L72.1005 101.911C72.1005 104.027 73.8432 105.75 75.9981 105.75H148.065C150.215 105.75 151.962 104.032 151.962 101.911L152.204 100.356C152.171 100.356 152.138 100.365 152.11 100.365C139.782 100.365 129.789 90.5108 129.789 78.3501L129.789 78.3493Z" fill="#F89F1F"/>
<circle cx="138.163" cy="18.7628" r="2.84286" fill="#F89F1F"/>
<circle r="2.84286" transform="matrix(-1 0 0 1 2.84293 86.9914)" fill="#E1DCD4"/>
<path d="M28.4286 22.4217H25.9001V25.0171H24.1342V22.4217H21.6057V20.7896H24.1342V18.1943H25.9001V20.7896H28.4286V22.4217Z" fill="#F89F1F"/>
</svg>
