<svg width="31" height="38" viewBox="0 0 31 38" fill="none" xmlns="http://www.w3.org/2000/svg">
<path d="M27.0805 15.3022H25.1891V9.6278C25.1891 6.24909 23.3864 3.12694 20.4602 1.43718C17.5343 -0.252173 13.929 -0.252173 11.0034 1.43718C8.07719 3.12654 6.27451 6.24868 6.27451 9.6278V15.3022H4.38315C3.37999 15.3022 2.41769 15.7009 1.70807 16.4102C0.998766 17.1198 0.600098 18.0821 0.600098 19.0853V34.2173C0.600098 35.2205 0.998766 36.1828 1.70807 36.8921C2.41769 37.6017 3.37999 38 4.38315 38H27.0808C28.084 38 29.0463 37.6017 29.7559 36.8921C30.4652 36.1828 30.8639 35.2205 30.8639 34.2173V19.0853C30.8639 18.0821 30.4652 17.1198 29.7559 16.4102C29.0463 15.7009 28.084 15.3022 27.0808 15.3022H27.0805ZM10.0572 9.6278C10.0572 7.60057 11.1389 5.72728 12.8944 4.71367C14.65 3.70006 16.8134 3.70006 18.5689 4.71367C20.3244 5.72728 21.4061 7.60057 21.4061 9.6278V15.3022H10.0572V9.6278ZM15.7317 30.4343C14.7285 30.4343 13.7662 30.0356 13.0566 29.3263C12.3473 28.6167 11.9486 27.6547 11.9486 26.6512C11.9486 25.648 12.3473 24.6857 13.0566 23.9764C13.7662 23.2668 14.7285 22.8685 15.7317 22.8685C16.7348 22.8685 17.6971 23.2668 18.4067 23.9764C19.116 24.6857 19.5147 25.648 19.5147 26.6512C19.5147 27.6547 19.116 28.6167 18.4067 29.3263C17.6971 30.0356 16.7348 30.4343 15.7317 30.4343Z" fill="#BBBBBB"/>
</svg>
