<svg width="23" height="26" viewBox="0 0 23 26" fill="none" xmlns="http://www.w3.org/2000/svg">
<path d="M5.36454 15.4208H4.30347V17.0033H5.36454C5.7905 17.0033 6.12759 16.6281 6.12759 16.2339C6.1267 15.7897 5.79051 15.4209 5.36454 15.4209V15.4208Z" fill="white"/>
<path d="M9.63528 15.4522H8.58057V18.2991H9.63528C11.3512 18.2993 11.4268 15.4522 9.63528 15.4522Z" fill="white"/>
<path d="M18.2803 11.9219H0.794796C0.357658 11.9219 0 12.2796 0 12.7167V20.6647C0 21.1018 0.357658 21.4595 0.794796 21.4595H18.2803C18.7182 21.4595 19.0751 21.1018 19.0751 20.6647V12.7167C19.0751 12.2796 18.7182 11.9219 18.2803 11.9219ZM5.36465 17.798H4.30357V18.6373C4.30357 18.9169 4.12563 19.0751 3.89659 19.0751C3.68672 19.0751 3.46496 18.9169 3.46496 18.6364V15.0591C3.46496 14.8492 3.6303 14.6196 3.89659 14.6196L5.36465 14.6195C6.19119 14.6195 6.93508 15.1726 6.93508 16.2337C6.93437 17.2384 6.19119 17.7979 5.36465 17.7979L5.36465 17.798ZM9.69238 19.0751H8.17995C7.97007 19.0751 7.74121 18.9598 7.74121 18.6809V15.0717C7.74121 14.8428 7.97007 14.6775 8.17995 14.6775H9.63524C12.5392 14.6775 12.4758 19.0751 9.69237 19.0751L9.69238 19.0751ZM15.3554 15.5033H13.5052V16.5135H15.1259C15.3556 16.5135 15.5836 16.7424 15.5836 16.965C15.5836 17.1749 15.3554 17.3457 15.1259 17.3457H13.5052V18.6802C13.5052 18.9027 13.347 19.0744 13.1245 19.0744C12.8447 19.0744 12.673 18.9027 12.673 18.6802V15.071C12.673 14.8421 12.8454 14.6768 13.1245 14.6768H15.3554C15.6352 14.6768 15.7997 14.8421 15.7997 15.071C15.7997 15.2752 15.6352 15.5033 15.3554 15.5033L15.3554 15.5033Z" fill="white"/>
<path d="M21.4596 6.0291L16.2253 0.794796C15.7658 0.333905 14.9584 0 14.3066 0H5.56383C4.24924 0 3.17944 1.0698 3.17944 2.38439V10.3323C3.17944 10.7718 3.53479 11.1271 3.97424 11.1271C4.41368 11.1271 4.76904 10.7718 4.76904 10.3323V2.38439C4.76904 1.94654 5.1251 1.58959 5.56383 1.58959H12.717C13.5952 1.58959 14.3066 2.30173 14.3066 3.17918V6.15967C14.3066 7.14358 15.1126 7.94796 16.0949 7.94796H19.0754C19.9535 7.94796 20.665 8.6601 20.665 9.53755V23.0491C20.665 23.4869 20.3096 23.8439 19.8702 23.8439H5.56383C5.1251 23.8439 4.76904 23.4869 4.76904 23.0491C4.76904 22.6096 4.41368 22.2543 3.97424 22.2543C3.53479 22.2543 3.17944 22.6096 3.17944 23.0491C3.17944 24.3637 4.24924 25.4335 5.56383 25.4335H19.8702C21.1848 25.4335 22.2546 24.3637 22.2546 23.0491V7.94796C22.2546 7.29705 21.9207 6.48949 21.4598 6.02928L21.4596 6.0291Z" fill="white"/>
</svg>
