<svg width="129" height="129" viewBox="0 0 129 129" fill="none" xmlns="http://www.w3.org/2000/svg">
<path fill-rule="evenodd" clip-rule="evenodd" d="M128.393 64.9352C128.211 100.24 99.2176 128.51 63.9126 128.328C28.6077 128.146 0.335945 99.582 0.517635 64.2771C0.699326 28.9721 29.2658 0.271086 64.5707 0.452776C75.765 0.510386 86.5132 3.57974 95.9585 8.79487L101.167 0.641112L110.138 14.4653L119.539 28.2917L103.185 26.9159L86.4002 25.5379L90.7456 17.8103C83.0181 13.4649 73.9894 10.8351 64.5164 10.7864C35.2398 10.6357 11.0044 34.6229 10.8515 64.3311C10.7009 93.6076 34.6881 117.843 63.9647 117.994C93.6728 118.147 117.908 94.1594 118.059 64.8828L128.393 64.9352ZM41.5346 42.0987C40.2541 39.9397 42.8506 37.3689 44.5619 39.5311L62.1169 58.5669C66.0006 56.8644 70.7215 59.9028 70.6971 64.6391L70.6949 65.07L91.7457 74.2207C94.3244 75.0947 92.5843 78.5306 90.4364 77.6589L68.9549 68.506C65.4879 72.7938 58.1824 70.173 58.2112 64.5757C58.2178 63.2842 58.6531 62.4256 59.0875 61.5662L41.5347 42.1004L41.5346 42.0987ZM105.572 64.8177C105.456 87.2066 86.8471 105.624 64.0278 105.507C41.6389 105.392 23.2213 86.7822 23.3365 64.3945C23.4539 41.5747 42.0633 23.1564 64.451 23.2716C87.2708 23.3891 105.689 41.9984 105.572 64.8177Z" fill="white" fill-opacity="0.7"/>
</svg>
