<svg width="41" height="33" viewBox="0 0 41 33" fill="none" xmlns="http://www.w3.org/2000/svg">
<path d="M12.4599 8.33742C9.65772 11.1395 8.62288 15.0628 9.35578 18.7274L9.95934 18.1239C10.8215 17.2617 12.2872 17.2617 13.1497 18.1239C14.0119 18.986 14.0119 20.4518 13.1497 21.3143L8.4936 25.9271C7.63144 26.7893 6.1657 26.7893 5.30323 25.9271L0.690081 21.3143C-0.172084 20.4521 -0.172084 18.9864 0.690081 18.1239C1.55225 17.2617 3.01798 17.2617 3.88045 18.1239L4.74262 18.986C3.96675 14.1143 5.43248 8.89781 9.22612 5.14706C13.753 0.620214 20.3059 -0.586848 25.9105 1.39639C27.4625 1.95693 27.8938 3.93992 26.7297 5.10403C26.1265 5.75088 25.2209 5.9665 24.4018 5.66458C20.3495 4.24188 15.6501 5.14732 12.4598 8.33745L12.4599 8.33742Z" fill="#F89F1F"/>
<path d="M15.0896 31.4455C13.5375 30.8849 13.1063 28.9019 14.2704 27.7378C14.8739 27.1343 15.8224 26.9186 16.6416 27.2206C20.6942 28.6433 25.3503 27.7378 28.5837 24.5477C31.3858 21.7456 32.4206 17.8223 31.6877 14.1577L31.0842 14.7612C30.222 15.6234 28.7563 15.6234 27.8938 14.7612C27.0316 13.8991 27.0316 12.4333 27.8938 11.5709L32.5497 6.95803C33.4119 6.09586 34.8776 6.09586 35.7401 6.95803L40.3532 11.5709C41.2154 12.433 41.2154 13.8988 40.3532 14.7612C39.491 15.6234 38.0253 15.6234 37.1628 14.7612L36.3007 13.8991C37.0765 18.7708 35.6108 23.9873 31.8172 27.7381C27.2903 32.2216 20.7374 33.4717 15.0897 31.4454L15.0896 31.4455Z" fill="#F89F1F"/>
</svg>
