<svg width="22" height="22" viewBox="0 0 22 22" fill="none" xmlns="http://www.w3.org/2000/svg">
<path d="M10.962 22H1.51475C0.612872 22 0.0233657 21.4357 0.0082561 20.5389C-0.00182083 19.899 -0.00685907 19.2641 0.018333 18.6243C0.0485638 17.8685 0.416371 17.2891 1.07136 16.9313C3.22277 15.7574 5.38428 14.6086 7.53579 13.4397C7.69199 13.354 7.78772 13.4346 7.9036 13.4951C9.74265 14.4575 11.6169 14.5381 13.5315 13.737C13.5869 13.7168 13.6474 13.7017 13.6927 13.6614C14.0908 13.3238 14.4485 13.4598 14.8616 13.6866C16.7914 14.7497 18.7362 15.7927 20.6812 16.8306C21.5226 17.279 21.9357 17.9542 21.9206 18.9064C21.9105 19.4455 21.9206 19.9796 21.9206 20.5187C21.9156 21.4105 21.321 22 20.4342 22H10.9622L10.962 22Z" fill="#783398"/>
<path d="M10.8058 12.9863C9.03228 12.9258 7.56102 12.0491 6.47778 10.4922C4.70424 7.93771 4.91587 4.31015 6.94636 1.98243C9.1532 -0.541843 12.811 -0.526734 14.9978 2.01266C17.3205 4.71328 17.1744 8.976 14.6602 11.4244C13.6324 12.4271 12.403 12.9662 10.8058 12.9863L10.8058 12.9863Z" fill="#783398"/>
</svg>
